<?xml version="1.0" encoding="UTF-8"?>
<!-- Generator: Adobe Illustrator 19.2.1, SVG Export Plug-In . SVG Version: 6.00 Build 0)  -->
<svg xmlns="http://www.w3.org/2000/svg" xmlns:xlink="http://www.w3.org/1999/xlink" xmlns:dc="http://purl.org/dc/elements/1.1/" xmlns:cc="http://creativecommons.org/ns#" xmlns:rdf="http://www.w3.org/1999/02/22-rdf-syntax-ns#" version="1.1" id="DESIGNS" x="0px" y="0px" width="32px" height="32px" viewBox="0 0 32 32" style="enable-background:new 0 0 32 32;" xml:space="preserve">
<title property="dc:title">to arrange</title><desc property="dc:description">An icon for "arrange" from the Feather series on to [icon]. Downloaded from http://www.toicon.com/icons/feather_arrange by 97.83.87.162 on 2018-10-29. Licensed CC-BY, see http://toicon.com/license/ for details.</desc>
<path class="feather_een" d="M29,4H3C1.343,4,0,5.343,0,7v16c0,1.657,1.343,3,3,3h9v3h-1.5c-0.276,0-0.5,0.224-0.5,0.5  c0,0.276,0.224,0.5,0.5,0.5h11c0.276,0,0.5-0.224,0.5-0.5c0-0.276-0.224-0.5-0.5-0.5H20v-3h9c1.657,0,3-1.343,3-3V7  C32,5.343,30.657,4,29,4z M3,5h26c1.105,0,2,0.895,2,2v15H1V7C1,5.895,1.895,5,3,5z M19,29h-6v-3h6V29z M29,25H3  c-1.105,0-2-0.895-2-2h30C31,24.105,30.105,25,29,25z M27,10h1c0.552,0,1-0.448,1-1V8c0-0.552-0.448-1-1-1h-1c-0.552,0-1,0.448-1,1  v1C26,9.552,26.448,10,27,10z M27,8h1v1h-1V8z M27,14h1c0.552,0,1-0.448,1-1v-1c0-0.552-0.448-1-1-1h-1c-0.552,0-1,0.448-1,1v1  C26,13.552,26.448,14,27,14z M27,12h1v1h-1V12z M27,18h1c0.552,0,1-0.448,1-1v-1c0-0.552-0.448-1-1-1h-1c-0.552,0-1,0.448-1,1v1  C26,17.552,26.448,18,27,18z M27,16h1v1h-1V16z M23,14h1c0.552,0,1-0.448,1-1v-1c0-0.552-0.448-1-1-1h-1c-0.552,0-1,0.448-1,1v1  C22,13.552,22.448,14,23,14z M23,12h1v1h-1V12z M23,10h1c0.552,0,1-0.448,1-1V8c0-0.552-0.448-1-1-1h-1c-0.552,0-1,0.448-1,1v1  C22,9.552,22.448,10,23,10z M23,8h1v1h-1V8z" style="fill: #0B1719;"/>
<metadata><work rdf:about=""><format>image/svg+xml</format><type rdf:resource="http://purl.org/dc/dcmitype/StillImage"/><license rdf:resource="http://creativecommons.org/licenses/by/4.0/"/><attributionname>Shannon E Thomas</attributionname><attributionurl>http://www.toicon.com/icons/feather_arrange</attributionurl></work></metadata></svg>
